<svg id="Layer_1" data-name="Layer 1" xmlns="http://www.w3.org/2000/svg" viewBox="0 0 900 315.07"><defs><style>.cls-1,.cls-2,.cls-5{fill:#fff;}.cls-2{font-size:157.12px;letter-spacing:0.2em;}.cls-2,.cls-5{font-family:FiraSans-MediumItalic, Fira Sans;font-style:italic;}.cls-3{letter-spacing:0.18em;}.cls-4{letter-spacing:0.2em;}.cls-5{font-size:87.29px;letter-spacing:0.1em;}.cls-6{letter-spacing:0.1em;}.cls-7{letter-spacing:0.1em;}</style></defs><title>logo-light</title><path class="cls-1" d="M614.26,119.28H788.39c7.3,0,7.31-11.34,0-11.34H614.26c-7.29,0-7.31,11.34,0,11.34Z"/><path class="cls-1" d="M185.07,170.29c-1.9-25.76,13.82-49.29,34-64,21.42-15.55,49.45-23.52,75.4-15.83,16.62,4.92,30.34,16.15,40.33,30.12,4.21,5.89,14.05.23,9.79-5.72-10.25-14.35-23.38-26.06-39.82-32.76-14.45-5.89-30.23-7.1-45.57-4.77C229.83,81.84,202,100.05,186,125.1c-8.54,13.38-13.46,29.25-12.28,45.19.53,7.23,11.87,7.29,11.34,0Z"/><path class="cls-1" d="M672.51,112.1c-14.93-50.94-56.64-88.62-106.75-104C512.77-8.26,453.67.71,407.58,31.38c-30.83,20.51-54.9,49.49-71.91,82.22-3.36,6.46,6.42,12.2,9.79,5.72C372.72,66.87,419.05,26.07,478,14.51,526.16,5,579.37,16.42,617.38,48.22a137.85,137.85,0,0,1,44.2,66.9c2,7,13,4,10.93-3Z"/><path class="cls-1" d="M668.15,155h40.24c7.3,0,7.31-11.34,0-11.34H668.15c-7.3,0-7.31,11.34,0,11.34Z"/><path class="cls-1" d="M729.44,155.39h79.85c7.3,0,7.31-11.33,0-11.33H729.44c-7.29,0-7.3,11.33,0,11.33Z"/><path class="cls-1" d="M685.66,194.42h82.1c7.3,0,7.31-11.34,0-11.34h-82.1c-7.3,0-7.31,11.34,0,11.34Z"/><path class="cls-1" d="M653.91,230.66h31.18c7.29,0,7.3-11.34,0-11.34H653.91c-7.3,0-7.31,11.34,0,11.34Z"/><path class="cls-1" d="M705.8,231.31h16.14c7.29,0,7.3-11.34,0-11.34H705.8c-7.3,0-7.31,11.34,0,11.34Z"/><path class="cls-1" d="M742.21,230.77h50.15c7.3,0,7.31-11.34,0-11.34H742.21c-7.29,0-7.3,11.34,0,11.34Z"/><path class="cls-1" d="M675.09,267.64h47.75c7.29,0,7.31-11.33,0-11.33H675.09c-7.29,0-7.3,11.33,0,11.33Z"/><path class="cls-1" d="M745.44,267.14h30.48c7.29,0,7.3-11.34,0-11.34H745.44c-7.3,0-7.31,11.34,0,11.34Z"/><path class="cls-1" d="M749.39,261.47c1.6,22.94-29.71,30.37-46.83,33.25a409.34,409.34,0,0,1-77.32,5.34c-7.3-.17-7.29,11.17,0,11.34,29.09.67,58.6-1.3,87.18-7,21-4.17,50.1-17.17,48.31-42.94-.51-7.24-11.85-7.3-11.34,0Z"/><text class="cls-2" transform="translate(92.12 312.77)">S<tspan class="cls-3" x="118.15" y="0">t</tspan><tspan class="cls-4" x="204.09" y="0">ock</tspan></text><text class="cls-5" transform="translate(337.01 179.52)">c<tspan class="cls-6" x="49.84" y="0">l</tspan><tspan class="cls-7" x="83.27" y="0">oud</tspan></text></svg>