<svg id="Layer_1" data-name="Layer 1" xmlns="http://www.w3.org/2000/svg" viewBox="0 0 900 315.1"><defs><style>.cls-1{fill:#5282c3;}.cls-2{fill:#242a33;}</style></defs><title>logo</title><path class="cls-1" d="M614.26,119.24H788.39c7.3,0,7.31-11.34,0-11.34H614.26c-7.29,0-7.31,11.34,0,11.34Z"/><path class="cls-1" d="M185.07,170.24c-1.9-25.75,13.82-49.29,34-63.95,21.42-15.55,49.45-23.52,75.4-15.83,16.62,4.92,30.34,16.15,40.33,30.12,4.21,5.88,14.05.23,9.79-5.72C334.37,100.51,321.24,88.8,304.8,82.1c-14.45-5.89-30.23-7.1-45.57-4.77C229.83,81.8,202,100,186,125.06c-8.54,13.38-13.46,29.25-12.28,45.18.53,7.24,11.87,7.3,11.34,0Z"/><path class="cls-1" d="M672.51,112.06C657.58,61.12,615.87,23.43,565.76,8,512.77-8.3,453.67.67,407.58,31.34c-30.83,20.51-54.9,49.49-71.91,82.21-3.36,6.47,6.42,12.21,9.79,5.73C372.72,66.83,419.05,26,478,14.46,526.16,5,579.37,16.38,617.38,48.18a137.87,137.87,0,0,1,44.2,66.89c2,7,13,4,10.93-3Z"/><path class="cls-1" d="M668.15,155h40.24c7.3,0,7.31-11.34,0-11.34H668.15c-7.3,0-7.31,11.34,0,11.34Z"/><path class="cls-1" d="M729.44,155.35h79.85c7.3,0,7.31-11.34,0-11.34H729.44c-7.29,0-7.3,11.34,0,11.34Z"/><path class="cls-1" d="M685.66,194.38h82.1c7.3,0,7.31-11.34,0-11.34h-82.1c-7.3,0-7.31,11.34,0,11.34Z"/><path class="cls-1" d="M653.91,230.62h31.18c7.29,0,7.3-11.34,0-11.34H653.91c-7.3,0-7.31,11.34,0,11.34Z"/><path class="cls-1" d="M705.8,231.27h16.14c7.29,0,7.3-11.34,0-11.34H705.8c-7.3,0-7.31,11.34,0,11.34Z"/><path class="cls-1" d="M742.21,230.73h50.15c7.3,0,7.31-11.34,0-11.34H742.21c-7.29,0-7.3,11.34,0,11.34Z"/><path class="cls-1" d="M675.09,267.6h47.75c7.29,0,7.31-11.34,0-11.34H675.09c-7.29,0-7.3,11.34,0,11.34Z"/><path class="cls-1" d="M745.44,267.1h30.48c7.29,0,7.3-11.34,0-11.34H745.44c-7.3,0-7.31,11.34,0,11.34Z"/><path class="cls-1" d="M749.39,261.43c1.6,22.94-29.71,30.37-46.83,33.25A409.34,409.34,0,0,1,625.24,300c-7.3-.17-7.29,11.17,0,11.34,29.09.67,58.6-1.3,87.18-7,21-4.17,50.1-17.18,48.31-42.94-.51-7.24-11.85-7.3-11.34,0Z"/><path class="cls-2" d="M178.54,215.47l-11.63,11.31a34.7,34.7,0,0,0-10.37-6.91,31.2,31.2,0,0,0-11.94-2.2q-8.49,0-13.75,3.93a12.62,12.62,0,0,0-5.26,10.68,10.87,10.87,0,0,0,1.72,6.29,16.44,16.44,0,0,0,5.74,4.71,71.82,71.82,0,0,0,11.7,4.72q13.68,4.23,20.9,11.15t7.23,19.17A35.61,35.61,0,0,1,168.17,296q-4.72,8.42-14.77,13.75t-25.3,5.34q-23.56,0-37.39-15.24L103,287.9A36.38,36.38,0,0,0,114.35,296a34.69,34.69,0,0,0,14.22,2.75q10.53,0,16.58-4.79t6-13.12a12.52,12.52,0,0,0-4-9.66q-4-3.69-14.38-7.31-14.93-5-21.76-11.86t-6.83-17.67a29.65,29.65,0,0,1,4.55-15.64,33.64,33.64,0,0,1,13.6-12.17q9-4.72,21.76-4.72Q165.18,201.8,178.54,215.47Z"/><path class="cls-2" d="M241.22,287.75c-.21,2.09-.31,3.4-.31,3.92,0,2.52.52,4.32,1.57,5.42s2.72,1.65,5,1.65q4.4,0,10.68-3l5.66,13.35a38.79,38.79,0,0,1-20.9,6q-10.53,0-16.26-5.57T221,293.72a42.64,42.64,0,0,1,.47-6.13l6.12-43.52H214.67l2-14.46h13.67l5.19-18.85,16.65-1.89-2.83,20.74h19.17l-4.24,14.46h-17Z"/><path class="cls-2" d="M311.06,305.81q-8.71-9.27-8.72-25.76a69.66,69.66,0,0,1,4.48-24.36,46.39,46.39,0,0,1,14.53-20.26q10-8.18,25.77-8.17,16,0,24.75,9.34t8.72,25.54a70.88,70.88,0,0,1-4.4,24.35,46.47,46.47,0,0,1-14.46,20.35q-10.05,8.25-25.92,8.24Q319.77,315.08,311.06,305.81Zm39.67-12.49A38,38,0,0,0,358,277.69a81.09,81.09,0,0,0,2-17.75q0-17.44-14-17.44a17,17,0,0,0-13.83,6.36,37.58,37.58,0,0,0-7.3,15.32,75.2,75.2,0,0,0-2.12,17.44q0,18.22,14.14,18.22A16.74,16.74,0,0,0,350.73,293.32Z"/><path class="cls-2" d="M494.18,237.15l-10.05,11.94a22.67,22.67,0,0,0-7.23-4.63,23,23,0,0,0-8-1.34q-12.72,0-18.3,11.71A60.4,60.4,0,0,0,445,281.15q0,9.27,3.77,13.43t11,4.16a24.28,24.28,0,0,0,8.57-1.49,56,56,0,0,0,9.19-4.63L485.07,306q-13.05,9.12-27.5,9.11-15.87,0-24.66-9.34t-8.8-25.69a66.52,66.52,0,0,1,4.71-24.12,48.67,48.67,0,0,1,14.77-20.43q10.05-8.25,25.14-8.24Q484.12,227.26,494.18,237.15Z"/><path class="cls-2" d="M559.38,242.18q11.79-14.93,27.81-14.92,9.59,0,15.48,5.42a18.21,18.21,0,0,1,5.89,14.06,27,27,0,0,1-6,17.36q-6,7.47-17.91,11.7l16.81,36.93H579.65l-17.28-40.38q13.83-4.08,19.8-9.51a17.07,17.07,0,0,0,6-13.12,7.7,7.7,0,0,0-2.12-5.81,8.17,8.17,0,0,0-5.9-2q-6,0-12.33,5T556.56,262l-7.07,50.75h-19.8L546,196.3l20-2.2Z"/><path class="cls-2" d="M379.25,137.5l-5.58,6.63a12.41,12.41,0,0,0-4-2.57,12.63,12.63,0,0,0-4.45-.74,10.51,10.51,0,0,0-10.17,6.5,33.49,33.49,0,0,0-3.1,14.62q0,5.15,2.1,7.46a7.81,7.81,0,0,0,6.11,2.31,13.61,13.61,0,0,0,4.76-.82,31.32,31.32,0,0,0,5.1-2.58l4.19,7.42a26.2,26.2,0,0,1-15.27,5.06q-8.82,0-13.71-5.19t-4.89-14.27a37.06,37.06,0,0,1,2.62-13.4,27.11,27.11,0,0,1,8.21-11.35,21.31,21.31,0,0,1,14-4.58A19.29,19.29,0,0,1,379.25,137.5Z"/><path class="cls-2" d="M402.3,168.57l-.09,1a2.41,2.41,0,0,0,.52,1.75,2.14,2.14,0,0,0,1.57.52,10,10,0,0,0,2.62-.52l1.66,7.85a17.94,17.94,0,0,1-7.68,1.66q-4.62,0-7.16-2.49T391.21,171a17.77,17.77,0,0,1,.18-2.88l7.5-53.34,11.18-1.22Z"/><path class="cls-2" d="M428.53,175.64q-4.84-5.14-4.85-14.31a38.69,38.69,0,0,1,2.49-13.53,25.81,25.81,0,0,1,8.07-11.26q5.6-4.54,14.32-4.54,8.91,0,13.75,5.19t4.84,14.19a39.31,39.31,0,0,1-2.44,13.53,25.77,25.77,0,0,1-8,11.3q-5.6,4.59-14.4,4.58T428.53,175.64Zm22-6.94a21.06,21.06,0,0,0,4-8.68,44.86,44.86,0,0,0,1.14-9.87q0-9.68-7.77-9.68a9.39,9.39,0,0,0-7.68,3.53,20.8,20.8,0,0,0-4.06,8.51A41.78,41.78,0,0,0,435,162.2q0,10.13,7.86,10.13A9.31,9.31,0,0,0,450.57,168.7Z"/><path class="cls-2" d="M486.75,177.78c-1.95-2-2.93-4.78-2.93-8.33a20,20,0,0,1,.27-3.23l4.62-32.91h11l-4.45,31.51c-.12,1.16-.18,2-.18,2.44a5.11,5.11,0,0,0,1,3.58,4,4,0,0,0,3,1,8.61,8.61,0,0,0,5.8-2.44,34,34,0,0,0,5.46-6.46l4.19-29.68h11l-6.46,46.17h-9.52l.44-7.59a26.42,26.42,0,0,1-6.9,6.59,14.76,14.76,0,0,1-8,2.31Q489.68,180.79,486.75,177.78Z"/><path class="cls-2" d="M588,114.89,579,179.48h-9.69l.08-7.07q-5.49,8.39-13.87,8.38-7.08,0-10.83-4.93t-3.75-13.57a43.69,43.69,0,0,1,2.31-13.79,28.35,28.35,0,0,1,7.25-11.74A17.07,17.07,0,0,1,562.82,132a13.83,13.83,0,0,1,11.08,5.06l3.32-23.3ZM557.71,144a22.08,22.08,0,0,0-4.06,8.68,43.18,43.18,0,0,0-1.22,10q0,9.69,6.28,9.69a8.79,8.79,0,0,0,6-2.45,33.93,33.93,0,0,0,5.58-7l2.54-18.16a11.5,11.5,0,0,0-3.45-3.27,8.4,8.4,0,0,0-4.32-1.09A9,9,0,0,0,557.71,144Z"/></svg>